<?xml version="1.0" encoding="UTF-8"?>
<svg xmlns="http://www.w3.org/2000/svg" xmlns:xlink="http://www.w3.org/1999/xlink" viewBox="0 0 64 64" width="64px" height="64px">
<g id="surface6035587">
<path style=" stroke:none;fill-rule:nonzero;fill:rgb(40.000001%,40.000001%,40.000001%);fill-opacity:1;" d="M 9.199219 2 L 54.800781 2 C 58.777344 2 62 5.222656 62 9.199219 L 62 54.800781 C 62 58.777344 58.777344 62 54.800781 62 L 9.199219 62 C 5.222656 62 2 58.777344 2 54.800781 L 2 9.199219 C 2 5.222656 5.222656 2 9.199219 2 Z M 9.199219 2 "/>
<path style=" stroke:none;fill-rule:nonzero;fill:rgb(80.000001%,80.000001%,80.000001%);fill-opacity:1;" d="M 6.800781 2 L 57.199219 2 C 59.851562 2 62 4.148438 62 6.800781 C 62 8.789062 60.386719 10.398438 58.398438 10.398438 L 5.601562 10.398438 C 3.613281 10.398438 2 8.789062 2 6.800781 C 2 4.148438 4.148438 2 6.800781 2 Z M 6.800781 2 "/>
<path style=" stroke:none;fill-rule:nonzero;fill:rgb(0%,0%,0%);fill-opacity:1;" d="M 54.800781 63.199219 L 9.199219 63.199219 C 4.566406 63.199219 0.800781 59.429688 0.800781 54.800781 L 0.800781 9.199219 C 0.800781 4.570312 4.566406 0.800781 9.199219 0.800781 L 54.800781 0.800781 C 59.433594 0.800781 63.199219 4.570312 63.199219 9.199219 L 63.199219 54.800781 C 63.199219 59.429688 59.433594 63.199219 54.800781 63.199219 Z M 9.199219 3.199219 C 5.890625 3.199219 3.199219 5.890625 3.199219 9.199219 L 3.199219 54.800781 C 3.199219 58.109375 5.890625 60.800781 9.199219 60.800781 L 54.800781 60.800781 C 58.109375 60.800781 60.800781 58.109375 60.800781 54.800781 L 60.800781 9.199219 C 60.800781 5.890625 58.109375 3.199219 54.800781 3.199219 Z M 9.199219 3.199219 "/>
<path style=" stroke:none;fill-rule:nonzero;fill:rgb(98.039216%,93.725491%,87.058824%);fill-opacity:1;" d="M 46.398438 17.011719 L 46.398438 45.199219 C 46.398438 48.511719 43.710938 51.199219 40.398438 51.199219 L 39.199219 51.199219 C 36.234375 51.199219 33.894531 48.511719 34.496094 45.429688 C 34.941406 43.148438 37.089844 41.601562 39.402344 41.601562 L 40.398438 41.601562 C 41.058594 41.601562 41.601562 41.058594 41.601562 40.398438 L 41.601562 23.492188 L 24.800781 27.308594 L 24.800781 50 C 24.800781 53.3125 22.113281 56 18.800781 56 L 17.601562 56 C 14.636719 56 12.296875 53.3125 12.894531 50.226562 C 13.339844 47.949219 15.488281 46.398438 17.804688 46.398438 L 18.800781 46.398438 C 19.460938 46.398438 20 45.859375 20 45.199219 L 20 21.921875 C 20 20.792969 20.78125 19.820312 21.871094 19.578125 L 43.472656 14.671875 C 44.972656 14.324219 46.398438 15.464844 46.398438 17.011719 Z M 46.398438 17.011719 "/>
<path style=" stroke:none;fill-rule:nonzero;fill:rgb(100%,97.254902%,93.333334%);fill-opacity:1;" d="M 46.398438 17.011719 L 46.398438 18.476562 C 45.859375 18.882812 45.234375 19.195312 44.527344 19.351562 L 22.929688 24.261719 C 22.566406 24.34375 22.21875 24.378906 21.859375 24.378906 C 21.210938 24.378906 20.589844 24.246094 20 23.996094 L 20 21.921875 C 20 20.792969 20.78125 19.820312 21.871094 19.578125 L 43.472656 14.671875 C 44.972656 14.324219 46.398438 15.464844 46.398438 17.011719 Z M 46.398438 17.011719 "/>
<path style=" stroke:none;fill-rule:nonzero;fill:rgb(0%,0%,0%);fill-opacity:1;" d="M 18.800781 57.199219 L 17.601562 57.199219 C 15.800781 57.199219 14.113281 56.402344 12.96875 55.011719 C 11.820312 53.621094 11.367188 51.796875 11.714844 50.003906 C 12.261719 47.21875 14.820312 45.199219 17.804688 45.199219 L 18.800781 45.199219 L 18.800781 21.917969 C 18.800781 20.222656 19.953125 18.78125 21.601562 18.40625 L 43.203125 13.496094 C 44.277344 13.25 45.382812 13.503906 46.246094 14.191406 C 47.105469 14.878906 47.601562 15.90625 47.601562 17.007812 L 47.601562 45.199219 C 47.601562 49.171875 44.371094 52.398438 40.398438 52.398438 L 39.199219 52.398438 C 37.398438 52.398438 35.710938 51.601562 34.566406 50.210938 C 33.421875 48.824219 32.96875 46.996094 33.316406 45.203125 C 33.859375 42.417969 36.421875 40.398438 39.40625 40.398438 L 40.398438 40.398438 L 40.398438 24.996094 L 26 28.265625 L 26 50 C 26 53.972656 22.769531 57.199219 18.800781 57.199219 Z M 17.804688 47.601562 C 15.996094 47.601562 14.390625 48.828125 14.074219 50.460938 C 13.855469 51.566406 14.125 52.640625 14.820312 53.488281 C 15.507812 54.324219 16.519531 54.800781 17.601562 54.800781 L 18.800781 54.800781 C 21.445312 54.800781 23.601562 52.648438 23.601562 50 L 23.601562 27.308594 C 23.601562 26.75 23.988281 26.261719 24.535156 26.136719 L 41.332031 22.320312 C 41.6875 22.238281 42.0625 22.324219 42.347656 22.550781 C 42.632812 22.78125 42.800781 23.125 42.800781 23.492188 L 42.800781 40.398438 C 42.800781 41.722656 41.722656 42.800781 40.398438 42.800781 L 39.40625 42.800781 C 37.597656 42.800781 35.992188 44.03125 35.671875 45.660156 C 35.457031 46.765625 35.722656 47.839844 36.421875 48.6875 C 37.105469 49.523438 38.121094 50 39.199219 50 L 40.398438 50 C 43.046875 50 45.199219 47.847656 45.199219 45.199219 L 45.199219 17.007812 C 45.199219 16.640625 45.035156 16.296875 44.75 16.070312 C 44.460938 15.839844 44.09375 15.757812 43.734375 15.835938 C 43.734375 15.835938 43.734375 15.835938 43.734375 15.839844 L 22.136719 20.746094 C 21.585938 20.871094 21.199219 21.351562 21.199219 21.917969 L 21.199219 45.199219 C 21.199219 46.523438 20.125 47.601562 18.800781 47.601562 Z M 43.46875 14.667969 L 43.480469 14.667969 Z M 43.46875 14.667969 "/>
<path style=" stroke:none;fill-rule:nonzero;fill:rgb(0%,0%,0%);fill-opacity:1;" d="M 22.898438 15.113281 C 22.363281 15.113281 21.875 14.75 21.738281 14.203125 L 21.15625 11.875 C 20.992188 11.234375 21.386719 10.582031 22.027344 10.421875 C 22.671875 10.261719 23.324219 10.648438 23.484375 11.292969 L 24.066406 13.621094 C 24.226562 14.265625 23.835938 14.914062 23.191406 15.078125 C 23.09375 15.101562 22.996094 15.113281 22.898438 15.113281 Z M 22.898438 15.113281 "/>
<path style=" stroke:none;fill-rule:nonzero;fill:rgb(0%,0%,0%);fill-opacity:1;" d="M 29.160156 13.546875 C 28.621094 13.546875 28.132812 13.183594 27.996094 12.636719 L 27.414062 10.308594 C 27.253906 9.667969 27.644531 9.015625 28.289062 8.855469 C 28.925781 8.691406 29.582031 9.082031 29.742188 9.726562 L 30.324219 12.054688 C 30.484375 12.699219 30.09375 13.347656 29.453125 13.511719 C 29.355469 13.535156 29.253906 13.546875 29.160156 13.546875 Z M 29.160156 13.546875 "/>
<path style=" stroke:none;fill-rule:nonzero;fill:rgb(0%,0%,0%);fill-opacity:1;" d="M 35.421875 11.980469 C 34.882812 11.980469 34.394531 11.617188 34.257812 11.070312 L 33.675781 8.742188 C 33.515625 8.101562 33.90625 7.449219 34.546875 7.289062 C 35.1875 7.128906 35.84375 7.519531 36.003906 8.164062 L 36.585938 10.492188 C 36.746094 11.132812 36.355469 11.785156 35.710938 11.945312 C 35.613281 11.972656 35.515625 11.980469 35.421875 11.980469 Z M 35.421875 11.980469 "/>
<path style=" stroke:none;fill-rule:nonzero;fill:rgb(0%,0%,0%);fill-opacity:1;" d="M 41.679688 10.417969 C 41.144531 10.417969 40.65625 10.054688 40.519531 9.507812 L 39.9375 7.179688 C 39.777344 6.539062 40.167969 5.886719 40.808594 5.726562 C 41.453125 5.566406 42.105469 5.953125 42.265625 6.597656 L 42.847656 8.925781 C 43.007812 9.570312 42.617188 10.21875 41.972656 10.378906 C 41.875 10.40625 41.777344 10.417969 41.679688 10.417969 Z M 41.679688 10.417969 "/>
</g>
</svg>
